<?xml version="1.0" encoding="utf-8"?>
<!-- Generator: Adobe Illustrator 21.0.0, SVG Export Plug-In . SVG Version: 6.00 Build 0)  -->
<svg fill="#06d6a0" version="1.1" id="Calque_1" xmlns="http://www.w3.org/2000/svg" xmlns:xlink="http://www.w3.org/1999/xlink" x="0px" y="0px"
	 width="60.7px" height="94.9px" viewBox="0 0 60.7 94.9" style="enable-background:new 0 0 60.7 94.9;" xml:space="preserve">
<path d="M14.9,46.6V3.1c0-1.7-1.4-3.1-3.1-3.1H3.1C1.4,0,0,1.4,0,3.1v88.7c0,1.7,1.4,3.1,3.1,3.1h8.7c1.7,0,3.1-1.4,3.1-3.1V61.6
	h30.9v30.2c0,1.7,1.4,3.1,3.1,3.1h8.7c1.7,0,3.1-1.4,3.1-3.1V49.7c0-1.7-1.4-3.1-3.1-3.1C57.6,46.6,14.9,46.6,14.9,46.6z"/>
</svg>
