<?xml version="1.0" encoding="utf-8"?>
<!-- Generator: Adobe Illustrator 21.0.0, SVG Export Plug-In . SVG Version: 6.00 Build 0)  -->
<svg fill="#06d6a0" version="1.1" id="Calque_1" xmlns="http://www.w3.org/2000/svg" xmlns:xlink="http://www.w3.org/1999/xlink" x="0px" y="0px"
	 width="93px" height="78px" viewBox="0 0 93 78" style="enable-background:new 0 0 93 78;" xml:space="preserve">
<path d="M54,36V9c0-5,4-9,9-9h21c5,0,9,4,9,9v39c0,16.6-13.4,30-30,30c-3.3,0-6-2.7-6-6c0.1-3.3,2.8-6,6.1-6C73,66,81,57.9,81,48v-3
	H63C58,45,54,41,54,36z M9,45h18v3c0,9.9-8,18-17.9,18c-3.3,0-6,2.7-6.1,6c0,3.3,2.7,6,6,6c16.6,0,30-13.4,30-30V9c0-5-4-9-9-9H9
	C4,0,0,4,0,9v27C0,41,4,45,9,45z"/>
</svg>
