<svg fill="#06d6a0" width="8" height="20" viewBox="0 0 8 20" xmlns="http://www.w3.org/2000/svg">
<path d="M5.86615 2.784C6.10615 1.73503 5.46526 0.68664 4.43469 0.442356C3.40413 0.198072 2.37413 0.850401 2.13414 1.89937C1.89414 2.94835 2.53503 3.99674 3.56559 4.24102C4.59616 4.48531 5.62616 3.83298 5.86615 2.784Z"/>
<path d="M0.729185 13.18C0.741706 13.18 0.754142 13.1797 0.766748 13.179C1.14237 13.1582 1.43052 12.8312 1.41016 12.4487C1.37754 11.8398 1.36289 11.2879 1.36289 10.7876C1.36042 9.21662 1.51101 8.16118 1.69661 7.47515V9.83043V11.4724V18.9283C1.69661 19.5203 2.16805 20.0001 2.74963 20.0001C3.3312 20.0001 3.80265 19.5203 3.80265 18.9283V12.1423H4.19761V18.9283C4.19761 19.5203 4.66905 20.0001 5.25063 20.0001C5.8322 20.0001 6.30365 19.5203 6.30365 18.9283V11.4724V9.83043V7.47515C6.49061 8.16074 6.63771 9.21757 6.6372 10.7877C6.6372 11.288 6.62255 11.84 6.59009 12.4488C6.56982 12.8313 6.8578 13.1582 7.23368 13.179C7.24611 13.1797 7.25863 13.18 7.27098 13.18C7.63051 13.18 7.93143 12.8936 7.95102 12.524C7.98467 11.8923 8 11.3155 8 10.7878C7.99625 8.21675 7.64414 6.80837 7.16128 5.95346C6.91938 5.52882 6.63115 5.24653 6.34922 5.08329C6.14122 4.96156 5.94455 4.90929 5.79379 4.89073C5.74609 4.87946 5.69661 4.87305 5.64559 4.87305H2.35475C2.30373 4.87305 2.25433 4.87946 2.20672 4.89065C2.05596 4.90929 1.85912 4.96139 1.65095 5.08329C1.22363 5.33063 0.801755 5.83416 0.504323 6.7078C0.203739 7.58629 0.0010221 8.8583 0 10.7876C0 11.3154 0.0155019 11.8924 0.0493165 12.5241C0.0690771 12.8937 0.369831 13.18 0.729185 13.18Z" />
</svg>
